#!OML:ASF E:\Style4\Style4.ASF
:FULLY-SPECIFIED
:DEGREES
2535
root -0.296734 17.6911 -1.99313 -1.37121 -1.10626 2.31182
lowerback 5.99257 2.00387 -0.364897
upperback 1.73022 2.65169 0.366269
thorax -1.60925 1.3234 0.387462
lowerneck -3.61651 -5.03147 -6.75421
upperneck 11.2892 -6.65501 3.58457
head 4.3188 -3.37624 1.85955
rclavicle -2.01766e-014 8.34896e-015
rhumerus 39.8986 16.4308 -65.7392
rradius 32.501
rwrist 24.9675
rhand -36.2054 30.6933
rfingers 7.12502
rthumb -9.30797 0.918793
lclavicle -2.01766e-014 8.34896e-015
lhumerus 43.1254 -26.6972 63.725
lradius 42.5699
lwrist -21.3356
lhand -29.2271 28.8903
lfingers 7.12502
lthumb -2.57104 58.8546
rfemur -13.0202 0.366052 16.8986
rtibia 34.9514
rfoot -19.2472 -14.0116
rtoes -12.9555
lfemur -9.96003 -2.67878 -20.5271
ltibia 31.3704
lfoot -19.7839 8.67398
ltoes -14.8117
2536
root -0.297119 17.6939 -1.9918 -1.3622 -1.10729 2.24865
lowerback 5.75383 2.02769 -0.279981
upperback 1.87563 2.689 0.386087
thorax -1.32442 1.34164 0.370251
lowerneck -3.65333 -5.0592 -6.77162
upperneck 11.1765 -6.69093 3.62859
head 4.29447 -3.39133 1.8738
rclavicle 1.29707e-014 -1.59028e-014
rhumerus 40.0657 16.2737 -65.6328
rradius 32.4896
rwrist 25.007
rhand -36.1587 30.7658
rfingers 7.12502
rthumb -9.26289 0.989271
lclavicle 1.29707e-014 -1.59028e-014
lhumerus 43.3331 -26.579 63.8421
lradius 42.4678
lwrist -21.4892
lhand -29.3419 29.3656
lfingers 7.12502
lthumb -2.68188 59.3285
rfemur -12.9405 0.397689 16.9775
rtibia 34.9193
rfoot -19.2451 -13.8284
rtoes -12.0495
lfemur -9.94293 -2.71812 -20.46
ltibia 31.3369
lfoot -19.7746 8.69912
ltoes -14.7562
2537
root -0.296139 17.6959 -1.98997 -1.34449 -1.13901 2.2182
lowerback 5.91984 2.00038 -0.230421
upperback 1.75064 2.65535 0.378232
thorax -1.54231 1.32501 0.327603
lowerneck -3.70864 -5.01888 -6.74229
upperneck 11.3645 -6.63473 3.58595
head 4.35571 -3.36501 1.8561
rclavicle -9.19379e-015 4.77083e-015
rhumerus 39.9013 16.3688 -65.7911
rradius 32.5346
rwrist 25.0689
rhand -36.0424 30.72
rfingers 7.12502
rthumb -9.1507 0.938537
lclavicle -9.19379e-015 4.77083e-015
lhumerus 43.056 -26.4442 64.1329
lradius 42.3766
lwrist -21.8404
lhand -29.2684 29.1087
lfingers 7.12502
lthumb -2.61096 59.0725
rfemur -12.9299 0.435164 17.0091
rtibia 34.8675
rfoot -19.202 -13.8065
rtoes -11.8095
lfemur -9.93927 -2.7306 -20.4342
ltibia 31.3106
lfoot -19.7816 8.73605
ltoes -14.6179
2538
root -0.295808 17.6965 -1.98953 -1.32615 -1.13395 2.18761
lowerback 5.95037 2.00003 -0.212342
upperback 1.71607 2.65643 0.400006
thorax -1.59507 1.32555 0.337779
lowerneck -3.73417 -5.02791 -6.71296
upperneck 11.4316 -6.63994 3.50734
head 4.37728 -3.3704 1.82573
rclavicle -2.26615e-014 5.96354e-015
rhumerus 39.8677 16.3559 -65.8158
rradius 32.506
rwrist 25.1683
rhand -36.0139 30.7362
rfingers 7.12502
rthumb -9.12322 0.953504
lclavicle -2.26615e-014 5.96354e-015
lhumerus 43.0418 -26.548 63.993
lradius 42.5422
lwrist -21.691
lhand -29.1952 29.0814
lfingers 7.12502
lthumb -2.54026 59.046
rfemur -12.9682 0.449224 17.0409
rtibia 34.7834
rfoot -19.1476 -14.0117
rtoes -12.6734
lfemur -9.95132 -2.73727 -20.4012
ltibia 31.3012
lfoot -19.8388 8.69568
ltoes -14.2585
2539
root -0.296007 17.6972 -1.99032 -1.28071 -1.12775 2.18713
lowerback 5.88426 2.00656 -0.192268
upperback 1.72402 2.66616 0.389262
thorax -1.54876 1.3304 0.31756
lowerneck -3.68122 -5.03667 -6.69324
upperneck 11.35 -6.65448 3.50325
head 4.34344 -3.37711 1.82269
rclavicle 2.70844e-014 5.1684e-015
rhumerus 39.8986 16.2855 -65.8243
rradius 32.4979
rwrist 25.2163
rhand -35.8976 30.7258
rfingers 7.12502
rthumb -9.01098 0.938228
lclavicle 2.70844e-014 5.1684e-015
lhumerus 43.1641 -26.7032 63.6907
lradius 42.7083
lwrist -21.3932
lhand -29.1863 29.3938
lfingers 7.12502
lthumb -2.53164 59.3586
rfemur -13.0117 0.436707 17.0426
rtibia 34.6895
rfoot -19.0586 -14.1491
rtoes -13.3394
lfemur -10.0044 -2.74468 -20.3969
ltibia 31.2966
lfoot -19.8415 8.69714
ltoes -14.0731
2540
root -0.296754 17.6986 -1.99037 -1.22464 -1.11533 2.15536
lowerback 5.82978 2.00595 -0.146103
upperback 1.71931 2.66798 0.383226
thorax -1.5209 1.33129 0.287442
lowerneck -3.64379 -5.04694 -6.7092
upperneck 11.2927 -6.67458 3.55806
head 4.32304 -3.38502 1.84238
rclavicle 8.19987e-015 3.57812e-015
rhumerus 39.9122 16.3086 -65.7549
rradius 32.5335
rwrist 25.0607
rhand -35.9591 30.641
rfingers 7.12502
rthumb -9.07033 0.856028
lclavicle 8.19987e-015 3.57812e-015
lhumerus 43.2225 -26.7257 63.6512
lradius 42.7263
lwrist -21.3004
lhand -29.1767 29.4145
lfingers 7.12502
lthumb -2.52235 59.3794
rfemur -13.0194 0.438441 17.0823
rtibia 34.5943
rfoot -19.0142 -14.1993
rtoes -13.4908
lfemur -10.0645 -2.74834 -20.3547
ltibia 31.2953
lfoot -19.8017 8.72597
ltoes -14.2325
2541
root -0.296879 17.7001 -1.9902 -1.18604 -1.112 2.15628
lowerback 5.77665 2.00796 -0.116308
upperback 1.73687 2.67207 0.36866
thorax -1.47126 1.33333 0.258042
lowerneck -3.67915 -5.06111 -6.72755
upperneck 11.308 -6.69254 3.57824
head 4.33587 -3.39323 1.84931
rclavicle 3.97569e-016 1.31198e-014
rhumerus 39.968 16.3474 -65.6421
rradius 32.5464
rwrist 24.8638
rhand -36.1679 30.568
rfingers 7.12502
rthumb -9.27183 0.791858
lclavicle 3.97569e-016 1.31198e-014
lhumerus 43.3045 -26.7133 63.6135
lradius 42.7514
lwrist -21.3171
lhand -29.1337 29.4213
lfingers 7.12502
lthumb -2.48082 59.3866
rfemur -13.0179 0.445851 17.0775
rtibia 34.5283
rfoot -19.0272 -14.1712
rtoes -13.4685
lfemur -10.0961 -2.75825 -20.3553
ltibia 31.2828
lfoot -19.8031 8.68836
ltoes -14.0954
2542
root -0.297674 17.703 -1.98928 -1.14954 -1.12026 2.0913
lowerback 5.65996 2.00793 -0.0475666
upperback 1.78476 2.67599 0.385096
thorax -1.35479 1.33531 0.241846
lowerneck -3.7343 -5.08211 -6.67925
upperneck 11.3172 -6.7115 3.49388
head 4.34452 -3.40422 1.81313
rclavicle 1.3418e-015 1.98785e-015
rhumerus 40.031 16.3249 -65.6063
rradius 32.5737
rwrist 24.7746
rhand -36.1673 30.4494
rfingers 7.12502
rthumb -9.27122 0.673261
lclavicle 1.3418e-015 1.98785e-015
lhumerus 43.3912 -26.6559 63.582
lradius 42.7948
lwrist -21.2939
lhand -29.0059 29.3139
lfingers 7.12502
lthumb -2.35743 59.2806
rfemur -13.0229 0.510143 17.1596
rtibia 34.4641
rfoot -19.0116 -14.2371
rtoes -13.4535
lfemur -10.1257 -2.73499 -20.2755
ltibia 31.2593
lfoot -19.7511 8.6586
ltoes -14.1485
2543
root -0.297503 17.7051 -1.98909 -1.14106 -1.12601 2.05898
lowerback 5.81021 1.99746 -0.00143697
upperback 1.68618 2.66507 0.379046
thorax -1.53726 1.32968 0.202566
lowerneck -3.71459 -5.08192 -6.63744
upperneck 11.3884 -6.71119 3.43903
head 4.35973 -3.40576 1.78954
rclavicle 2.26615e-014 -1.70955e-014
rhumerus 39.9174 16.3604 -65.667
rradius 32.5766
rwrist 24.7708
rhand -35.9795 30.4691
rfingers 7.12502
rthumb -9.09004 0.685023
lclavicle 2.26615e-014 -1.70955e-014
lhumerus 43.2837 -26.7043 63.5894
lradius 42.7912
lwrist -21.2718
lhand -29.0331 29.1657
lfingers 7.12502
lthumb -2.38372 59.1321
rfemur -13.0083 0.534667 17.1977
rtibia 34.4131
rfoot -19.0084 -14.2306
rtoes -13.2779
lfemur -10.1121 -2.75112 -20.2417
ltibia 31.2139
lfoot -19.7137 8.70978
ltoes -14.2414
2544
root -0.298026 17.7073 -1.98932 -1.1417 -1.13429 2.05945
lowerback 5.75384 2.00272 -0.0135868
upperback 1.72641 2.67143 0.394156
thorax -1.46585 1.33292 0.227491
lowerneck -3.69899 -5.08695 -6.68135
upperneck 11.3154 -6.71826 3.4768
head 4.33797 -3.40892 1.8088
rclavicle 1.66979e-014 -3.97569e-015
rhumerus 39.9963 16.3552 -65.5632
rradius 32.5925
rwrist 24.8085
rhand -35.9376 30.3274
rfingers 7.12502
rthumb -9.04958 0.541533
lclavicle 1.66979e-014 -3.97569e-015
lhumerus 43.3531 -26.703 63.5289
lradius 42.8191
lwrist -21.2834
lhand -29.1112 29.2409
lfingers 7.12502
lthumb -2.45907 59.2065
rfemur -12.9985 0.537449 17.2033
rtibia 34.3941
rfoot -18.9666 -14.276
rtoes -13.5394
lfemur -10.0761 -2.74816 -20.2413
ltibia 31.1572
lfoot -19.6483 8.7724
ltoes -14.6706
2545
root -0.298868 17.7108 -1.98775 -1.13143 -1.11277 2.06038
lowerback 5.81541 1.97647 -0.0196517
upperback 1.67525 2.63647 0.396536
thorax -1.55291 1.31542 0.232228
lowerneck -3.71446 -5.06271 -6.69452
upperneck 11.3923 -6.68384 3.46478
head 4.36232 -3.3934 1.80807
rclavicle -1.03865e-014 -1.15295e-014
rhumerus 39.9586 16.3846 -65.6194
rradius 32.5914
rwrist 24.8951
rhand -35.7726 30.3671
rfingers 7.12502
rthumb -8.89039 0.574415
lclavicle -1.03865e-014 -1.15295e-014
lhumerus 43.2551 -26.6986 63.5286
lradius 42.8427
lwrist -21.3542
lhand -29.1007 29.3578
lfingers 7.12502
lthumb -2.44896 59.3235
rfemur -12.97 0.500303 17.2019
rtibia 34.4151
rfoot -18.9998 -14.1395
rtoes -13.0311
lfemur -10.0353 -2.74438 -20.238
ltibia 31.0674
lfoot -19.6341 8.71468
ltoes -14.5677
2546
root -0.298116 17.7133 -1.98674 -1.12971 -1.08933 2.06122
lowerback 5.86975 1.95188 -0.00449414
upperback 1.64045 2.60469 0.389272
thorax -1.61776 1.29947 0.215742
lowerneck -3.69849 -5.0417 -6.71548
upperneck 11.4495 -6.65749 3.47644
head 4.37687 -3.38121 1.81639
rclavicle -1.65488e-014 -1.23246e-014
rhumerus 39.8994 16.3481 -65.756
rradius 32.5967
rwrist 25.0029
rhand -35.6174 30.4728
rfingers 7.12502
rthumb -8.74059 0.67375
lclavicle -1.65488e-014 -1.23246e-014
lhumerus 43.1804 -26.7034 63.5073
lradius 42.8669
lwrist -21.3498
lhand -29.1765 29.4758
lfingers 7.12502
lthumb -2.52214 59.4406
rfemur -12.9069 0.431347 17.1957
rtibia 34.4305
rfoot -19.0416 -13.8319
rtoes -11.8633
lfemur -9.99145 -2.76704 -20.2432
ltibia 30.9869
lfoot -19.6156 8.71891
ltoes -14.3772
2547
root -0.298685 17.7148 -1.98566 -1.10334 -1.0936 2.18865
lowerback 5.94338 1.96687 -0.164049
upperback 1.57231 2.61495 0.3646
thorax -1.73481 1.30491 0.274497
lowerneck -3.74057 -5.04571 -6.70499
upperneck 11.5882 -6.65968 3.43959
head 4.42491 -3.38399 1.80081
rclavicle 8.59744e-015 -2.38542e-015
rhumerus 39.7966 16.314 -65.8375
rradius 32.5852
rwrist 25.0874
rhand -35.6035 30.4826
rfingers 7.12502
rthumb -8.7272 0.683007
lclavicle 8.59744e-015 -2.38542e-015
lhumerus 43.0633 -26.7372 63.5876
lradius 42.9388
lwrist -21.422
lhand -29.0578 29.5425
lfingers 7.12502
lthumb -2.40754 59.5087
rfemur -12.9355 0.439552 17.0499
rtibia 34.4261
rfoot -19.0672 -13.7865
rtoes -11.6669
lfemur -9.97869 -2.77178 -20.3842
ltibia 30.9171
lfoot -19.5733 8.79955
ltoes -14.8161
